<?xml version="1.0" standalone="no"?>
<svg xmlns="http://www.w3.org/2000/svg" viewBox="0 0 1440 320" width="100%" height="100%" preserveAspectRatio="none">
    <path fill="#ffffff" fill-opacity="1" d="M0,128L30,112C60,96,120,64,180,69.3C240,75,300,117,360,117.3C420,117,480,75,540,74.7C600,75,660,117,720,138.7C780,160,840,160,900,154.7C960,149,1020,139,1080,154.7C1140,171,1200,213,1260,218.7C1320,224,1380,192,1410,176L1440,160L1440,320L1410,320C1380,320,1320,320,1260,320C1200,320,1140,320,1080,320C1020,320,960,320,900,320C840,320,780,320,720,320C660,320,600,320,540,320C480,320,420,320,360,320C300,320,240,320,180,320C120,320,60,320,30,320L0,320Z"></path>
</svg>